{"title":"Robin Hood Men In Tights (1993) BRRip XviD + Extras - DiGrX","uid":8257702,"size":1991603300,"categoryP":"video","categoryS":"movies","magnet":"?xt=urn:btih:f8b5d531cef9e01023e96105a64ce007b8806f86&amp;dn=Robin+Hood+Men+In+Tights+%281993%29+BRRip+XviD+%2B+Extras+-+DiGrX&amp;tr=udp%3A%2F%2Ftracker.openbittorrent.com%3A80&amp;tr=udp%3A%2F%2Fopen.demonii.com%3A1337&amp;tr=udp%3A%2F%2Ftracker.coppersurfer.tk%3A6969&amp;tr=udp%3A%2F%2Fexodus.desync.com%3A6969","seeders":2,"leechers":0,"uploader":"dimigeor","files":5,"time":1363297453,"description":"A DiGrX rekease\n\n- Robin Hood Men In Tights (1993) BRRip XviD - DiGrX\n+ Robin Hood Men In Tights - Behind the Scenes\n+ Robin Hood Men In Tights - Trailer\n+ Front cover jpg\n\n\nMain movie file info:\n\nGeneral\nFormat                                   : AVI\nFormat/Info                              : Audio Video Interleave\nFormat profile                           : OpenDML\nFile size                                : 1.56 GiB\nDuration                                 : 1h 44mn\nOverall bit rate mode                    : Variable\nOverall bit rate                         : 2 135 Kbps\nWriting application                      : MEncoder r33883\nWriting library                          : MPlayer\n\nVideo\nID                                       : 0\nFormat                                   : MPEG-4 Visual\nFormat profile                           : Simple@L3\nFormat settings, BVOP                    : No\nFormat settings, QPel                    : No\nFormat settings, GMC                     : No warppoints\nFormat settings, Matrix                  : Default (H.263)\nCodec ID                                 : XVID\nCodec ID/Hint                            : XviD\nDuration                                 : 1h 44mn\nBit rate                                 : 1 997 Kbps\nWidth                                    : 880 pixels\nHeight                                   : 480 pixels\nDisplay aspect ratio                     : 16:9\nFrame rate                               : 25.000 fps\nColor space                              : YUV\nChroma subsampling                       : 4:2:0\nBit depth                                : 8 bits\nScan type                                : Progressive\nCompression mode                         : Lossy\nBits/(Pixel*Frame)                       : 0.189\nStream size                              : 1.46 GiB (94%)\nWriting library                          : XviD 63\n\nAudio\nID                                       : 1\nFormat                                   : MPEG Audio\nFormat version                           : Version 1\nFormat profile                           : Layer 3\nMode                                     : Joint stereo\nMode extension                           : MS Stereo\nCodec ID                                 : 55\nCodec ID/Hint                            : MP3\nDuration                                 : 1h 44mn\nBit rate mode                            : Variable\nBit rate                                 : 124 Kbps\nChannel(s)                               : 2 channels\nSampling rate                            : 48.0 KHz\nCompression mode                         : Lossy\nStream size                              : 92.5 MiB (6%)\nAlignment                                : Aligned on interleaves\nInterleave, duration                     : 24 ms (0.60 video frame)\nInterleave, preload duration             : 477 ms\n","torrent":{"xt":"urn:btih:f8b5d531cef9e01023e96105a64ce007b8806f86","amp;dn":"Robin+Hood+Men+In+Tights+%281993%29+BRRip+XviD+%2B+Extras+-+DiGrX","amp;tr":["udp%3A%2F%2Ftracker.openbittorrent.com%3A80","udp%3A%2F%2Fopen.demonii.com%3A1337","udp%3A%2F%2Ftracker.coppersurfer.tk%3A6969","udp%3A%2F%2Fexodus.desync.com%3A6969"],"infoHash":"f8b5d531cef9e01023e96105a64ce007b8806f86","infoHashBuffer":{"type":"Buffer","data":[248,181,213,49,206,249,224,16,35,233,97,5,166,76,224,7,184,128,111,134]},"announce":[],"urlList":[]}}